HIERARCHY
ROOT root
{
	OFFSET 0.000000 0.000000 0.000000
	CHANNELS 6 Xposition Yposition Zposition Zrotation Yrotation Xrotation
	JOINT lhip
	{
		OFFSET 0.058581 -0.082280 -0.017664
		CHANNELS 3 Zrotation Yrotation Xrotation
		JOINT lknee
		{
			OFFSET 0.043451 -0.386469 0.008037
			CHANNELS 3 Zrotation Yrotation Xrotation
			JOINT lankle
			{
				OFFSET -0.014790 -0.426874 -0.037428
				CHANNELS 3 Zrotation Yrotation Xrotation
				JOINT ltoe
				{
					OFFSET 0.041054 -0.060286 0.122042
					CHANNELS 3 Zrotation Yrotation Xrotation
					End Site
					{
						OFFSET 0.000000 0.000000 0.000000
					}
				}
			}
		}
	}
	JOINT rhip
	{
		OFFSET -0.060310 -0.090513 -0.013543
		CHANNELS 3 Zrotation Yrotation Xrotation
		JOINT rknee
		{
			OFFSET -0.043257 -0.383688 -0.004843
			CHANNELS 3 Zrotation Yrotation Xrotation
			JOINT rankle
			{
				OFFSET 0.019056 -0.420046 -0.034562
				CHANNELS 3 Zrotation Yrotation Xrotation
				JOINT rtoe
				{
					OFFSET -0.034840 -0.062106 0.130323
					CHANNELS 3 Zrotation Yrotation Xrotation
					End Site
					{
						OFFSET 0.000000 0.000000 0.000000
					}
				}
			}
		}
	}
	JOINT lowerback
	{
		OFFSET 0.004439 0.124404 -0.038385
		CHANNELS 3 Zrotation Yrotation Xrotation
		JOINT upperback
		{
			OFFSET 0.004488 0.137956 0.026820
			CHANNELS 3 Zrotation Yrotation Xrotation
			JOINT chest
			{
				OFFSET -0.002265 0.056032 0.002855
				CHANNELS 3 Zrotation Yrotation Xrotation
				JOINT lowerneck
				{
					OFFSET -0.013390 0.211636 -0.033468
					CHANNELS 3 Zrotation Yrotation Xrotation
					JOINT upperneck
					{
						OFFSET 0.010113 0.088937 0.050410
						CHANNELS 3 Zrotation Yrotation Xrotation
						End Site
						{
							OFFSET 0.000000 0.000000 0.000000
						}
					}
				}
				JOINT lclavicle
				{
					OFFSET 0.071702 0.114000 -0.018898
					CHANNELS 3 Zrotation Yrotation Xrotation
					JOINT lshoulder
					{
						OFFSET 0.122921 0.045205 -0.019046
						CHANNELS 3 Zrotation Yrotation Xrotation
						JOINT lelbow
						{
							OFFSET 0.255332 -0.015649 -0.022946
							CHANNELS 3 Zrotation Yrotation Xrotation
							JOINT lwrist
							{
								OFFSET 0.265709 0.012698 -0.007375
								CHANNELS 3 Zrotation Yrotation Xrotation
								End Site
								{
									OFFSET 0.000000 0.000000 0.000000
								}
							}
						}
					}
				}
				JOINT rclavicle
				{
					OFFSET -0.082954 0.112472 -0.023707
					CHANNELS 3 Zrotation Yrotation Xrotation
					JOINT rshoulder
					{
						OFFSET -0.113228 0.046853 -0.008472
						CHANNELS 3 Zrotation Yrotation Xrotation
						JOINT relbow
						{
							OFFSET -0.260127 -0.014369 -0.031269
							CHANNELS 3 Zrotation Yrotation Xrotation
							JOINT rwrist
							{
								OFFSET -0.269108 0.006794 -0.006027
								CHANNELS 3 Zrotation Yrotation Xrotation
								End Site
								{
									OFFSET 0.000000 0.000000 0.000000
								}
							}
						}
					}
				}
			}
		}
	}
}
MOTION
Frames: 10
Frame Time: 0.033333
1.297069 1.325807 0.990682 -73.517208 -3.061563 87.353996 5.582549 0.446114 8.809073 -6.601087 -16.215646 20.440352 -0.842970 9.121806 -30.857384 0.000000 -0.000000 0.000000 -7.911342 6.083223 -30.740633 -2.884324 1.373545 40.807452 7.363889 -5.934092 -11.373574 0.000000 -0.000000 0.000000 -0.314304 -5.239686 25.289943 0.407680 -0.664052 5.589189 0.660459 -3.137612 1.781208 -7.853869 17.601788 -13.326639 -9.122314 12.519915 -10.689798 -23.824710 -7.224094 -0.094515 -54.307335 -20.367537 9.546706 15.009110 -39.064923 -0.615461 5.307969 -12.863067 -12.391976 26.778490 1.623422 2.612669 59.018438 -2.823660 14.782137 -16.710024 27.257105 -5.335684 3.498797 10.303948 -6.621701 
1.305795 1.324737 1.002034 -69.962068 -4.027296 88.241687 4.994316 0.568210 7.672451 -5.775846 -17.036930 17.420741 -1.583780 6.963092 -28.186271 0.000000 -0.000000 0.000000 -8.187854 5.819713 -30.527221 -6.350691 -0.569719 39.040119 7.266377 -9.703850 -8.244018 0.000000 -0.000000 0.000000 -0.356185 -5.930309 25.296195 0.066369 -0.935147 4.272787 0.503654 -3.060036 2.097763 -7.685276 15.643373 -13.081994 -8.341920 11.836589 -11.183560 -23.704017 -6.192066 0.623765 -55.088153 -19.785227 9.924142 14.159216 -39.505558 1.274305 4.239943 -13.079057 -13.512769 26.108494 1.429435 2.301386 60.150450 -2.514159 15.414814 -17.023170 28.568673 -6.263445 4.719506 9.988658 -9.797185 
1.313100 1.324881 1.009622 -65.822436 -4.322472 88.072873 5.037348 0.416553 7.235262 -5.110573 -17.920829 15.167302 -2.012934 5.549560 -26.580504 0.000000 -0.000000 0.000000 -8.944139 5.495853 -29.455748 -6.900041 -0.383623 37.896713 6.900399 -11.358324 -6.093598 0.000000 -0.000000 0.000000 0.330012 -6.123327 25.565793 0.286729 -1.336706 4.880005 0.641293 -3.280284 1.797562 -7.455862 13.678668 -13.609539 -7.926346 10.416417 -11.194852 -23.888666 -6.546136 1.142225 -55.708401 -19.589127 10.135355 13.248767 -38.488849 2.197402 7.267961 -12.069555 -13.669695 25.918704 1.999558 1.931671 59.382305 -2.128172 15.446026 -17.908955 30.861345 -7.780326 0.128868 10.581330 -9.240870 
1.319333 1.326731 1.012296 -62.447012 -4.481084 88.051957 5.088621 0.030498 6.088502 -4.763580 -18.796408 14.939613 -2.168483 4.542527 -25.984059 0.000000 -0.000000 0.000000 -9.705242 5.288403 -28.291594 -7.025914 1.250887 36.551020 7.257812 -11.449318 -4.920391 0.000000 -0.000000 0.000000 0.713137 -5.514168 25.083915 0.799602 -1.442626 6.110854 1.038987 -3.582273 1.371662 -7.250829 12.058517 -13.731524 -7.463713 9.479989 -10.822113 -24.461891 -7.494722 1.556324 -56.098380 -19.166490 10.335149 14.032407 -37.206393 1.960896 5.051259 -12.086990 -12.995983 25.623079 3.018764 2.071864 57.589135 -1.624378 15.419501 -18.347990 32.706791 -7.446679 4.291524 9.996221 -9.656949 
1.321069 1.331460 1.011296 -60.070563 -4.322811 87.466695 6.033926 -0.334654 5.487866 -5.377718 -20.232924 15.424522 -2.041379 3.593741 -26.612053 0.000000 -0.000000 0.000000 -10.886243 5.172195 -27.295123 -6.044746 3.023536 36.691562 8.967400 -9.544031 -5.132559 0.000000 -0.000000 0.000000 0.707831 -4.693330 25.934461 1.124080 -1.143712 6.107320 1.412487 -3.280101 0.941911 -6.590206 10.976227 -13.938031 -6.537847 7.863070 -9.777399 -24.865244 -8.113290 1.726919 -56.149131 -18.575000 10.416156 13.803958 -35.221619 1.522318 5.357292 -12.521500 -12.751516 26.196215 3.731971 1.726664 55.005554 -0.954464 14.675108 -17.518284 32.800290 -6.871333 3.751476 10.494035 -7.864402 
1.319333 1.337802 1.008201 -58.265522 -4.116677 86.400857 7.151630 -0.515437 4.968248 -6.528903 -21.016440 17.822681 -3.137633 3.117594 -27.276268 0.000000 -0.000000 0.000000 -11.996493 4.570649 -25.570022 -4.422938 4.937751 36.368515 9.246456 -6.797914 -6.962505 0.000000 -0.000000 0.000000 0.736043 -4.585146 27.412150 0.849249 -1.210996 4.679333 1.098266 -2.548912 1.622362 -5.615021 10.484620 -13.721218 -5.868345 6.216028 -9.560604 -25.084990 -7.268406 1.189424 -55.413137 -17.583098 10.095688 12.826883 -34.251171 1.876473 6.706657 -12.221901 -12.722516 26.649833 4.476289 1.750990 53.495364 0.841367 14.094306 -17.057208 31.835276 -6.967836 1.513719 10.532766 -6.547043 
1.316985 1.345460 1.000916 -57.112478 -3.959845 85.738415 8.092758 -0.773130 3.845896 -7.851605 -21.781116 20.957616 -3.400615 2.696837 -28.740409 0.000000 -0.000000 0.000000 -12.987888 4.458743 -23.964319 -3.411092 7.081719 35.169186 8.937860 -5.326793 -10.689814 0.000000 -0.000000 0.000000 1.143293 -3.698036 27.256892 0.633855 -0.751608 5.632997 0.641900 -2.264201 1.376391 -5.127955 9.756746 -13.509149 -5.203161 4.427237 -9.264017 -25.143870 -7.591289 1.564677 -54.207956 -16.685053 9.452930 13.050502 -33.818983 0.965754 5.882610 -12.699012 -13.511598 26.365575 5.509274 1.550863 52.961747 1.933590 13.048800 -17.825124 31.303560 -8.583507 1.769057 10.215448 -6.964760 
1.311917 1.352577 0.992543 -55.783642 -4.285887 84.792138 8.252104 -0.811536 3.252729 -8.509941 -23.002272 23.403244 -3.279513 1.969611 -29.940435 0.000000 -0.000000 0.000000 -14.282259 3.287242 -22.398549 -6.026676 4.243907 34.993591 7.287012 -9.777093 -16.435603 0.000000 -0.000000 0.000000 1.403164 -3.541031 27.918510 -0.175682 -0.413805 4.932587 0.026397 -1.739019 1.557804 -4.857817 8.955074 -13.219010 -4.663878 3.029295 -8.438295 -25.270214 -7.286090 2.032945 -52.425865 -15.724549 8.516273 12.594610 -33.900339 1.310715 5.545085 -12.799212 -14.655719 26.507554 6.478667 1.634817 52.294752 2.463401 12.252742 -18.803167 31.098924 -10.820235 1.458834 9.747284 -7.674883 
1.301977 1.361087 0.984363 -55.146107 -4.474580 83.730626 8.365907 -0.969332 3.941070 -8.503154 -24.932787 24.777249 -3.226436 2.502305 -30.996565 0.000000 -0.000000 0.000000 -15.783920 1.292460 -21.177922 -8.035292 1.079470 36.439762 6.192227 -13.489201 -20.631604 0.000000 -0.000000 0.000000 1.816459 -3.225563 27.939823 -0.938238 0.168409 4.879873 -0.477187 -1.165957 1.916472 -4.691688 7.904290 -12.249414 -4.362330 2.218165 -8.365469 -25.597584 -6.471009 1.790027 -50.840889 -14.620553 7.997247 11.599444 -33.216109 2.248012 9.577768 -8.671047 -15.665938 26.939956 7.111290 1.502005 50.762057 3.332979 11.701940 -18.368849 31.093745 -11.750028 -1.801100 9.315849 -7.154718 
1.288816 1.372378 0.978094 -54.892470 -4.511917 83.417248 8.537064 -2.502225 4.780201 -7.488276 -25.284487 24.607066 -2.684837 3.708318 -32.465357 0.000000 -0.000000 0.000000 -16.988320 1.324736 -20.085689 -8.490121 0.735549 38.507395 5.844627 -14.773491 -21.811547 0.000000 -0.000000 0.000000 2.225406 -3.005852 27.594585 -1.378088 0.878441 4.724567 -1.022668 -0.587881 1.699776 -4.273918 7.560494 -11.974265 -4.826572 1.261394 -7.283689 -26.637178 -5.464781 1.672047 -48.565672 -14.281762 6.588984 11.148637 -32.207065 1.758471 2.566303 -12.338341 -14.300066 27.283145 7.332202 1.206416 49.630997 4.015426 11.332748 -19.186544 31.401084 -13.222915 1.810140 9.642957 -7.145486 
